<svg width="33" height="26" viewBox="0 0 33 26" fill="none" xmlns="http://www.w3.org/2000/svg">
<path d="M6.5 20C7.32843 20 8 19.3284 8 18.5C8 17.6716 7.32843 17 6.5 17C5.67157 17 5 17.6716 5 18.5C5 19.3284 5.67157 20 6.5 20Z" fill="#D9D9D9"/>
<path d="M26.125 0H6.875C5.05231 0.00229357 3.30489 0.763941 2.01605 2.11787C0.727213 3.47181 0.0021833 5.30747 0 7.22222L0 18.7778C0.0021833 20.6925 0.727213 22.5282 2.01605 23.8821C3.30489 25.2361 5.05231 25.9977 6.875 26H26.125C27.9477 25.9977 29.6951 25.2361 30.9839 23.8821C32.2728 22.5282 32.9978 20.6925 33 18.7778V7.22222C32.9978 5.30747 32.2728 3.47181 30.9839 2.11787C29.6951 0.763941 27.9477 0.00229357 26.125 0ZM6.875 2.88889H26.125C27.219 2.88889 28.2682 3.34544 29.0418 4.15809C29.8154 4.97075 30.25 6.07295 30.25 7.22222H2.75C2.75 6.07295 3.1846 4.97075 3.95818 4.15809C4.73177 3.34544 5.78098 2.88889 6.875 2.88889ZM26.125 23.1111H6.875C5.78098 23.1111 4.73177 22.6546 3.95818 21.8419C3.1846 21.0292 2.75 19.927 2.75 18.7778V10.1111H30.25V18.7778C30.25 19.927 29.8154 21.0292 29.0418 21.8419C28.2682 22.6546 27.219 23.1111 26.125 23.1111Z" fill="#F9F8F8"/>
</svg>
