<svg width="33" height="30" viewBox="0 0 33 30" fill="none" xmlns="http://www.w3.org/2000/svg">
<path d="M16.4993 21.6671C13.4662 21.6671 10.9995 18.6773 10.9995 15.0008C10.9995 11.3244 13.4662 8.33454 16.4993 8.33454C19.5324 8.33454 21.9991 11.3244 21.9991 15.0008C21.9991 18.6773 19.5324 21.6671 16.4993 21.6671ZM16.4993 11.6677C14.9828 11.6677 13.7494 13.1626 13.7494 15.0008C13.7494 16.8391 14.9828 18.334 16.4993 18.334C18.0159 18.334 19.2492 16.8391 19.2492 15.0008C19.2492 13.1626 18.0159 11.6677 16.4993 11.6677ZM6.87471 6.66796C6.11575 6.66796 5.49977 7.41459 5.49977 8.33454C5.49977 9.25449 6.11575 10.0011 6.87471 10.0011C7.63368 10.0011 8.24966 9.25449 8.24966 8.33454C8.24966 7.41459 7.63368 6.66796 6.87471 6.66796ZM24.749 11.6677C24.749 12.5876 25.3649 13.3343 26.1239 13.3343C26.8829 13.3343 27.4989 12.5876 27.4989 11.6677C27.4989 10.7477 26.8829 10.0011 26.1239 10.0011C25.3649 10.0011 24.749 10.7477 24.749 11.6677ZM6.87471 16.6674C6.11575 16.6674 5.49977 17.414 5.49977 18.334C5.49977 19.2539 6.11575 20.0006 6.87471 20.0006C7.63368 20.0006 8.24966 19.2539 8.24966 18.334C8.24966 17.414 7.63368 16.6674 6.87471 16.6674ZM24.749 21.6671C24.749 22.5871 25.3649 23.3337 26.1239 23.3337C26.8829 23.3337 27.4989 22.5871 27.4989 21.6671C27.4989 20.7472 26.8829 20.0006 26.1239 20.0006C25.3649 20.0006 24.749 20.7472 24.749 21.6671ZM23.3754 30C21.1205 30 18.5796 29.1201 16.1226 28.2684C13.8484 27.4801 11.4959 26.6669 9.62597 26.6669C5.87101 26.6669 1.99642 28.8384 1.95654 28.8584L0 29.9683V6.93128C0 5.05139 0.849715 3.35148 2.22053 2.49319C4.04233 1.35492 6.80322 0 9.62597 0C11.9111 0 14.1165 0.891618 16.2477 1.75157C18.2592 2.56486 20.1594 3.33315 21.9991 3.33315C23.9048 3.33315 25.4598 2.72985 26.7096 2.24488C27.1249 2.08322 27.503 1.93656 27.8481 1.82656C29.0828 1.42825 30.3711 1.74657 31.3858 2.69318C32.4115 3.6498 33 5.09805 33 6.6663V27.1402L32.1929 27.5835C32.0128 27.6835 27.7477 30 23.3754 30ZM9.62597 23.3337C11.8809 23.3337 14.4218 24.2137 16.8788 25.0653C19.1543 25.8536 21.5055 26.6669 23.3754 26.6669C26.1253 26.6669 28.9164 25.5586 30.2501 24.9469V6.66796C30.2501 6.14133 30.0521 5.65635 29.7084 5.33637C29.5131 5.15471 29.1007 4.8764 28.5507 5.05139C28.2468 5.14971 27.9127 5.27971 27.547 5.42137C26.1913 5.94634 24.3324 6.66796 21.9991 6.66796C19.7139 6.66796 17.5085 5.77635 15.3774 4.91639C13.3658 4.10311 11.4656 3.33481 9.62597 3.33481C7.23495 3.33481 4.74905 4.66474 3.47998 5.45636C3.029 5.73801 2.74851 6.30298 2.74851 6.93128V24.9003C4.43969 24.1887 7.01496 23.3337 9.62597 23.3337Z" fill="#F9F8F8"/>
</svg>
